<svg xmlns="http://www.w3.org/2000/svg" viewBox="0 0 512 512" width="512" height="512">
  <rect width="512" height="512" fill="#78350F" rx="112" />
  <path d="M256 96C185.3 96 128 153.3 128 224c0 98.8 111.4 239.5 120.6 251.6a9.9 9.9 0 0014.8 0C272.6 463.5 384 322.8 384 224c0-70.7-57.3-128-128-128z" fill="#FDFBF7" />
  <path d="M256 160c-35.3 0-67.9 19.3-85.3 50.7-3.6 6.5-3.6 14.2 0 20.7 17.4 31.4 50 50.7 85.3 50.7s67.9-19.3 85.3-50.7c3.6-6.5 3.6-14.2 0-20.7C323.9 179.3 291.3 160 256 160zm0 85.3c-17.7 0-32-14.3-32-32s14.3-32 32-32 32 14.3 32 32-14.3 32-32 32z" fill="#EA580C" />
</svg>
